<svg width="151" height="151" viewBox="0 0 151 151" fill="none" xmlns="http://www.w3.org/2000/svg">
<circle cx="75.5" cy="75.5" r="75.5" fill="#55775E"/>
<path d="M50.86 93.98C53.7475 91.7342 56.01 89.0071 57.6475 85.7987C59.2851 82.5904 60.1026 79.1575 60.1 75.5C60.1 71.8425 59.2812 68.4096 57.6437 65.2012C56.0062 61.9929 53.7449 59.2658 50.86 57.02C48.8708 59.715 47.3475 62.6346 46.29 65.7787C45.2326 68.9229 44.7026 72.1633 44.7 75.5C44.7 78.8367 45.23 82.0771 46.29 85.2212C47.3501 88.3654 48.8734 91.285 50.86 93.98ZM75.5 106.3C79.0292 106.3 82.4467 105.738 85.7525 104.614C89.0584 103.489 92.0576 101.806 94.75 99.5625C91.0925 96.6108 88.2538 93.0329 86.2338 88.8287C84.2138 84.6245 83.2026 80.1816 83.2 75.5C83.2 70.8158 84.2113 66.3716 86.2338 62.1674C88.2563 57.9632 91.0951 54.3866 94.75 51.4375C92.055 49.1917 89.0558 47.5066 85.7525 46.3824C82.4492 45.2582 79.0317 44.6974 75.5 44.7C71.9708 44.7 68.5533 45.2621 65.2474 46.3863C61.9416 47.5105 58.9424 49.1942 56.25 51.4375C59.9075 54.3892 62.7462 57.9671 64.7662 62.1713C66.7862 66.3755 67.7974 70.8184 67.8 75.5C67.8 80.1842 66.7887 84.6283 64.7662 88.8325C62.7437 93.0367 59.9049 96.6134 56.25 99.5625C58.945 101.808 61.9441 103.493 65.2474 104.618C68.5507 105.742 71.9683 106.303 75.5 106.3ZM100.14 93.98C102.129 91.285 103.654 88.3654 104.714 85.2212C105.774 82.0771 106.303 78.8367 106.3 75.5C106.3 72.1633 105.77 68.9229 104.71 65.7787C103.65 62.6346 102.127 59.715 100.14 57.02C97.2525 59.2658 94.9913 61.9929 93.3563 65.2012C91.7213 68.4096 90.9026 71.8425 90.9 75.5C90.9 79.1575 91.7188 82.5904 93.3563 85.7987C94.9938 89.0071 97.2551 91.7342 100.14 93.98ZM75.5 114C70.1742 114 65.1692 112.989 60.485 110.966C55.8008 108.944 51.7262 106.201 48.2612 102.739C44.7963 99.2737 42.0538 95.1992 40.0338 90.515C38.0138 85.8308 37.0026 80.8258 37 75.5C37 70.1742 38.0113 65.1692 40.0338 60.485C42.0563 55.8008 44.7988 51.7262 48.2612 48.2612C51.7262 44.7963 55.8008 42.0538 60.485 40.0338C65.1692 38.0138 70.1742 37.0026 75.5 37C80.8258 37 85.8308 38.0113 90.515 40.0338C95.1992 42.0563 99.2737 44.7988 102.739 48.2612C106.204 51.7262 108.948 55.8008 110.97 60.485C112.993 65.1692 114.003 70.1742 114 75.5C114 80.8258 112.989 85.8308 110.966 90.515C108.944 95.1992 106.201 99.2737 102.739 102.739C99.2737 106.204 95.1992 108.948 90.515 110.97C85.8308 112.993 80.8258 114.003 75.5 114Z" fill="#EDE7DD"/>
</svg>
