<svg width="151" height="151" viewBox="0 0 151 151" fill="none" xmlns="http://www.w3.org/2000/svg">
<circle cx="75.5" cy="75.5" r="75.5" fill="#55775E"/>
<path d="M105.337 67.1348L100.501 62.372L103.091 59.7355L92.0375 48.8491L89.3604 51.4006L84.438 46.5527L87.0288 43.9162C88.3529 42.6121 89.9937 41.9736 91.9512 42.0008C93.9086 42.0281 95.5494 42.6948 96.8736 44.0012L108.014 54.9727C109.338 56.2768 110 57.878 110 59.7763C110 61.6746 109.338 63.2769 108.014 64.5833L105.337 67.1348ZM63.8849 108.044C62.5607 109.348 60.9337 110 59.0039 110C57.0741 110 55.4494 109.348 54.1299 108.044L42.9862 97.0724C41.6621 95.7683 41 94.166 41 92.2654C41 90.3648 41.6621 88.7636 42.9862 87.4618L45.577 84.9103L50.4994 89.7581L47.8223 92.3096L58.9625 103.281L61.5532 100.645L66.4756 105.492L63.8849 108.044ZM98.169 79.4671L103.091 74.6192L76.9249 48.8491L72.0025 53.6969L98.169 79.4671ZM73.9887 103.281L78.9111 98.3481L52.831 72.6631L47.8223 77.5109L73.9887 103.281ZM73.4706 83.3794L82.97 74.1089L77.4431 68.6657L68.03 78.0212L73.4706 83.3794ZM78.9111 108.044C77.587 109.348 75.9462 110 73.9887 110C72.0313 110 70.3905 109.348 69.0663 108.044L42.9862 82.3588C41.6621 81.0547 41 79.4387 41 77.5109C41 75.5831 41.6621 73.9672 42.9862 72.6631L47.9086 67.8152C49.2328 66.5111 50.8586 65.8591 52.7861 65.8591C54.7136 65.8591 56.3406 66.5111 57.6671 67.8152L63.1076 73.1734L72.607 63.8179L67.1665 58.5448C65.8423 57.2407 65.1802 55.6247 65.1802 53.6969C65.1802 51.7691 65.8423 50.1532 67.1665 48.8491L72.0889 44.0012C73.413 42.6971 75.04 42.0451 76.9698 42.0451C78.8996 42.0451 80.5255 42.6971 81.8473 44.0012L108.014 69.7714C109.338 71.0755 110 72.6767 110 74.575C110 76.4733 109.338 78.0756 108.014 79.382L103.091 84.2299C101.767 85.534 100.126 86.186 98.169 86.186C96.2115 86.186 94.5707 85.534 93.2466 84.2299L87.8924 78.8717L78.393 88.2272L83.8335 93.5854C85.1577 94.8895 85.8198 96.4918 85.8198 98.3924C85.8198 100.293 85.1577 101.894 83.8335 103.196L78.9111 108.044Z" fill="#EDE7DD"/>
</svg>
