<svg width="151" height="151" viewBox="0 0 151 151" fill="none" xmlns="http://www.w3.org/2000/svg">
<circle cx="75.5" cy="75.5" r="75.5" fill="#55775E"/>
<path d="M44 105V98.5556C45.995 98.5556 47.4912 98.0185 48.4887 96.9444C49.4862 95.8704 51.455 95.3333 54.395 95.3333C57.335 95.3333 59.3562 95.8704 60.4587 96.9444C61.5612 98.0185 63.0575 98.5556 64.9475 98.5556C66.8375 98.5556 68.3338 98.0185 69.4363 96.9444C70.5388 95.8704 72.56 95.3333 75.5 95.3333C78.44 95.3333 80.4613 95.8704 81.5638 96.9444C82.6663 98.0185 84.1625 98.5556 86.0525 98.5556C87.9425 98.5556 89.4387 98.0185 90.5412 96.9444C91.6437 95.8704 93.665 95.3333 96.605 95.3333C99.545 95.3333 101.514 95.8704 102.511 96.9444C103.509 98.0185 105.005 98.5556 107 98.5556V105C103.902 105 101.869 104.463 100.898 103.389C99.9283 102.315 98.4971 101.778 96.605 101.778C94.715 101.778 93.2187 102.315 92.1162 103.389C91.0137 104.463 88.9925 105 86.0525 105C83.1125 105 81.0913 104.463 79.9888 103.389C78.8863 102.315 77.39 101.778 75.5 101.778C73.61 101.778 72.1137 102.315 71.0112 103.389C69.9087 104.463 67.8875 105 64.9475 105C62.0075 105 59.9862 104.463 58.8837 103.389C57.7812 102.315 56.285 101.778 54.395 101.778C52.505 101.778 51.0739 102.315 50.1016 103.389C49.1293 104.463 47.0954 105 44 105ZM44 90.5V84.0556C45.995 84.0556 47.4912 83.5185 48.4887 82.4444C49.4862 81.3704 51.455 80.8333 54.395 80.8333C57.335 80.8333 59.3699 81.3704 60.4997 82.4444C61.6295 83.5185 63.1121 84.0556 64.9475 84.0556C66.8375 84.0556 68.3338 83.5185 69.4363 82.4444C70.5388 81.3704 72.56 80.8333 75.5 80.8333C78.44 80.8333 80.4613 81.3704 81.5638 82.4444C82.6663 83.5185 84.1625 84.0556 86.0525 84.0556C87.9425 84.0556 89.4387 83.5185 90.5412 82.4444C91.6437 81.3704 93.665 80.8333 96.605 80.8333C99.545 80.8333 101.514 81.3704 102.511 82.4444C103.509 83.5185 105.005 84.0556 107 84.0556V90.5C103.902 90.5 101.869 89.963 100.898 88.8889C99.9283 87.8148 98.4971 87.2778 96.605 87.2778C94.715 87.2778 93.2576 87.8148 92.2328 88.8889C91.208 89.963 89.1479 90.5 86.0525 90.5C83.06 90.5 81.0262 89.963 79.951 88.8889C78.8758 87.8148 77.3921 87.2778 75.5 87.2778C73.505 87.2778 72.0214 87.8148 71.0491 88.8889C70.0768 89.963 68.0429 90.5 64.9475 90.5C61.85 90.5 59.7888 89.963 58.764 88.8889C57.7392 87.8148 56.2829 87.2778 54.395 87.2778C52.505 87.2778 51.0749 87.8148 50.1047 88.8889C49.1345 89.963 47.0996 90.5 44 90.5ZM59.435 74.0667L69.9088 63.3528L66.7588 60.1306C65.0263 58.3583 63.1888 57.0694 61.2463 56.2639C59.3038 55.4583 56.915 55.0556 54.08 55.0556V47C58.0175 47 61.2725 47.4436 63.845 48.3308C66.4175 49.218 68.9375 50.9225 71.405 53.4444L81.485 63.7556L91.565 74.0667C90.6725 74.6574 89.8063 75.1279 88.9663 75.478C88.1263 75.8281 87.155 76.0021 86.0525 76C84.1625 76 82.6663 75.463 81.5638 74.3889C80.4613 73.3148 78.44 72.7778 75.5 72.7778C72.56 72.7778 70.5388 73.3148 69.4363 74.3889C68.3338 75.463 66.8375 76 64.9475 76C63.845 76 62.8738 75.8249 62.0338 75.4748C61.1938 75.1246 60.3275 74.6553 59.435 74.0667ZM90.305 47C92.51 47 94.3738 47.7916 95.8963 49.3748C97.4188 50.958 98.18 52.8516 98.18 55.0556C98.18 57.3111 97.4188 59.2176 95.8963 60.775C94.3738 62.3324 92.51 63.1111 90.305 63.1111C88.1 63.1111 86.2363 62.3324 84.7138 60.775C83.1913 59.2176 82.43 57.3111 82.43 55.0556C82.43 52.8537 83.1913 50.9601 84.7138 49.3748C86.2363 47.7894 88.1 46.9979 90.305 47Z" fill="#EDE7DD"/>
</svg>
