<svg width="57" height="50" viewBox="0 0 57 50" fill="none" xmlns="http://www.w3.org/2000/svg">
<path d="M37.2692 4.58076e-05C33.9594 -0.00706292 30.7012 0.81332 27.7958 2.38536C24.8904 3.9574 22.4315 6.23037 20.6464 8.99416C18.8614 11.758 17.8077 14.9234 17.5829 18.1978C17.3581 21.4723 17.9694 24.7501 19.3603 27.7283L0 46.9239L3.09992 50L21.706 31.55C22.7162 32.838 23.8842 33.9962 25.183 34.9978L17.5385 42.5783L20.6384 45.6522L29.0371 37.3239C31.7158 38.5456 34.6367 39.1562 37.5849 39.1107C40.533 39.0652 43.4333 38.3648 46.0724 37.0611C48.7115 35.7573 51.0222 33.8834 52.8345 31.5772C54.6468 29.271 55.9146 26.5912 56.5446 23.7349C57.1746 20.8787 57.1507 17.9188 56.4747 15.0729C55.7987 12.2271 54.4878 9.56773 52.6385 7.29058C50.7892 5.01342 48.4486 3.17641 45.7888 1.91471C43.129 0.653016 40.2177 -0.00125384 37.2692 4.58076e-05ZM52.4093 17.187C49.2139 16.6807 46.2614 15.1864 43.9733 12.9175C41.6851 10.6485 40.1782 7.72082 39.6676 4.55222C42.863 5.0585 45.8155 6.55276 48.1037 8.82172C50.3918 11.0907 51.8987 14.0184 52.4093 17.187ZM22.1292 21.9435C25.3246 22.4498 28.2771 23.944 30.5652 26.213C32.8534 28.482 34.3603 31.4097 34.8708 34.5783C31.6754 34.072 28.7229 32.5777 26.4348 30.3088C24.1466 28.0398 22.6397 25.1121 22.1292 21.9435ZM39.3081 34.6326C38.7772 30.2829 36.7908 26.2353 33.6666 23.1369C30.5424 20.0385 26.4608 18.0683 22.0743 17.5413C22.5256 14.2395 24.0566 11.1756 26.4326 8.81957C28.8086 6.46349 31.8984 4.94532 35.2282 4.49787C35.7591 8.8476 37.7454 12.8952 40.8696 15.9936C43.9938 19.092 48.0754 21.0622 52.4619 21.5892C52.0107 24.891 50.4797 27.9548 48.1037 30.3109C45.7276 32.667 42.6378 34.1852 39.3081 34.6326Z" fill="#EAE104"/>
</svg>
