<svg width="703" height="703" viewBox="0 0 703 703" fill="none" xmlns="http://www.w3.org/2000/svg">
<g clip-path="url(#clip0_58_80)">
<path d="M351.5 703C545.628 703 703 545.628 703 351.5C703 157.372 545.628 0 351.5 0C157.372 0 0 157.372 0 351.5C0 545.628 157.372 703 351.5 703Z" fill="#55775E"/>
<path d="M507.722 351.5C507.722 469.604 562.244 551.093 621.022 576.968C674.062 513.819 703.095 433.968 703 351.5C703 265.656 672.146 187.076 621.022 126.032C562.244 151.907 507.722 233.396 507.722 351.5Z" fill="#81A88C"/>
<path d="M527.25 351.5C527.25 233.396 562.244 151.907 621.022 126.032C612.296 115.718 602.985 105.912 593.137 96.6625C535.178 128.981 488.194 206.565 488.194 351.5C488.194 496.416 535.178 574.019 593.137 606.337C602.94 597.042 612.352 587.337 621.022 576.968C562.244 551.093 527.25 469.604 527.25 351.5Z" fill="white"/>
<path d="M195.278 351.5C195.278 233.396 140.756 151.926 81.9778 126.032C28.9383 189.181 -0.0948482 269.032 0.000232796 351.5C0.000232796 437.344 30.8541 515.924 81.9778 576.968C140.756 551.074 195.278 469.604 195.278 351.5Z" fill="#81A88C"/>
<path d="M81.9775 126.032C140.756 151.926 175.75 233.396 175.75 351.5C175.75 469.604 140.756 551.074 81.9775 576.968C90.6674 587.337 100.06 597.023 109.863 606.337C167.802 574.019 214.805 496.416 214.805 351.5C214.805 206.584 167.822 128.981 109.863 96.682C100.01 105.92 90.6992 115.719 81.9775 126.032Z" fill="white"/>
</g>
<defs>
<clipPath id="clip0_58_80">
<rect width="703" height="703" fill="white"/>
</clipPath>
</defs>
</svg>
