<svg width="151" height="151" viewBox="0 0 151 151" fill="none" xmlns="http://www.w3.org/2000/svg">
<circle cx="75.5" cy="75.5" r="75.5" fill="#55775E"/>
<path d="M90.75 93.7778C89.475 93.7778 88.4055 93.3511 87.5415 92.4978C86.6775 91.6444 86.247 90.5896 86.25 89.3333V71.5556C86.25 70.2963 86.682 69.24 87.546 68.3867C88.41 67.5333 89.478 67.1082 90.75 67.1111H102C103.275 67.1111 104.344 67.5378 105.208 68.3911C106.072 69.2445 106.503 70.2993 106.5 71.5556V89.3333C106.5 90.5926 106.068 91.6489 105.204 92.5022C104.34 93.3556 103.272 93.7807 102 93.7778H90.75ZM93 87.1111H99.75V73.7778H93V87.1111ZM48 93.7778C46.725 93.7778 45.6555 93.3511 44.7915 92.4978C43.9275 91.6444 43.497 90.5896 43.5 89.3333V82.6667C43.5 81.4074 43.932 80.3511 44.796 79.4978C45.66 78.6444 46.728 78.2193 48 78.2222H57V73.7778H46.875C45.9 73.7778 45.0945 73.4622 44.4585 72.8311C43.8225 72.2 43.503 71.4044 43.5 70.4444C43.5 69.4815 43.8195 68.6859 44.4585 68.0578C45.0975 67.4296 45.903 67.1141 46.875 67.1111H59.25C60.525 67.1111 61.5945 67.5378 62.4585 68.3911C63.3225 69.2445 63.753 70.2993 63.75 71.5556V78.2222C63.75 79.4815 63.318 80.5378 62.454 81.3911C61.59 82.2445 60.522 82.6696 59.25 82.6667H50.25V87.1111H60.375C61.35 87.1111 62.1555 87.4267 62.7915 88.0578C63.4275 88.6889 63.747 89.4844 63.75 90.4444C63.75 91.4074 63.4305 92.203 62.7915 92.8311C62.1525 93.4593 61.347 93.7748 60.375 93.7778H48ZM75 76C74.025 76 73.2195 75.6844 72.5835 75.0533C71.9475 74.4222 71.628 73.6267 71.625 72.6667C71.625 71.7037 71.9445 70.9082 72.5835 70.28C73.2225 69.6519 74.028 69.3363 75 69.3333C75.975 69.3333 76.7805 69.6489 77.4165 70.28C78.0525 70.9111 78.372 71.7067 78.375 72.6667C78.375 73.6296 78.0555 74.4252 77.4165 75.0533C76.7775 75.6815 75.972 75.997 75 76ZM75 91.5556C74.025 91.5556 73.2195 91.24 72.5835 90.6089C71.9475 89.9778 71.628 89.1822 71.625 88.2222C71.625 87.2593 71.9445 86.4637 72.5835 85.8356C73.2225 85.2074 74.028 84.8919 75 84.8889C75.975 84.8889 76.7805 85.2044 77.4165 85.8356C78.0525 86.4667 78.372 87.2622 78.375 88.2222C78.375 89.1852 78.0555 89.9807 77.4165 90.6089C76.7775 91.237 75.972 91.5526 75 91.5556ZM39 116C36.525 116 34.4055 115.129 32.6415 113.387C30.8775 111.644 29.997 109.553 30 107.111V53.7778C30 51.3333 30.882 49.24 32.646 47.4978C34.41 45.7556 36.528 44.8859 39 44.8889H52.5V40.4445C52.5 39.1852 52.932 38.1289 53.796 37.2756C54.66 36.4222 55.728 35.9971 57 36C58.275 36 59.3445 36.4267 60.2085 37.28C61.0725 38.1333 61.503 39.1882 61.5 40.4445V44.8889H88.5V40.4445C88.5 39.1852 88.932 38.1289 89.796 37.2756C90.66 36.4222 91.728 35.9971 93 36C94.275 36 95.3445 36.4267 96.2085 37.28C97.0725 38.1333 97.503 39.1882 97.5 40.4445V44.8889H111C113.475 44.8889 115.594 45.76 117.358 47.5022C119.122 49.2445 120.003 51.3363 120 53.7778V107.111C120 109.556 119.118 111.649 117.354 113.391C115.59 115.133 113.472 116.003 111 116H39ZM39 107.111H71.625V103.778C71.625 102.815 71.9445 102.019 72.5835 101.391C73.2225 100.763 74.028 100.447 75 100.444C75.975 100.444 76.7805 100.76 77.4165 101.391C78.0525 102.022 78.372 102.818 78.375 103.778V107.111H111V53.7778H78.375V57.1111C78.375 58.0741 78.0555 58.8696 77.4165 59.4978C76.7775 60.1259 75.972 60.4415 75 60.4445C74.025 60.4445 73.2195 60.1289 72.5835 59.4978C71.9475 58.8667 71.628 58.0711 71.625 57.1111V53.7778H39V107.111Z" fill="#EDE7DD"/>
</svg>
